<svg width="32" height="32" viewBox="0 0 32 32" fill="none" xmlns="http://www.w3.org/2000/svg">
<path d="M15.9996 25.2395C19.4022 25.2395 22.1604 23.9601 22.1604 22.382C22.1604 20.8038 19.4022 19.5244 15.9996 19.5244C12.5971 19.5244 9.83887 20.8038 9.83887 22.382C9.83887 23.9601 12.5971 25.2395 15.9996 25.2395Z" fill="#72CDCD"/>
<path d="M15.9988 24.1626C19.0707 24.1626 21.5611 23.0878 21.5611 21.7619C21.5611 20.4361 19.0707 19.3613 15.9988 19.3613C12.9268 19.3613 10.4365 20.4361 10.4365 21.7619C10.4365 23.0878 12.9268 24.1626 15.9988 24.1626Z" fill="#034444"/>
<path d="M21.5614 20.2119H10.4365V21.7626H21.5614V20.2119Z" fill="#034444"/>
<path d="M15.9998 22.6128C19.0717 22.6128 21.562 21.538 21.562 20.2121C21.562 18.8863 19.0717 17.8115 15.9998 17.8115C12.9278 17.8115 10.4375 18.8863 10.4375 20.2121C10.4375 21.538 12.9278 22.6128 15.9998 22.6128Z" fill="#058888"/>
<path d="M14.8503 20.1083C14.8412 20.0727 14.8372 20.0361 14.8384 19.9994C14.839 19.9775 14.8414 19.9556 14.8457 19.9341C15.2191 18.1994 15.5933 16.4649 15.9685 14.7307C16.0203 14.4888 15.9327 14.3785 15.682 14.3785C14.6244 14.3785 13.5664 15.1188 12.5088 15.1162C12.4303 15.1162 12.2478 14.4578 12.2337 14.3838C12.1888 14.1461 12.1194 14.0984 12.2314 13.9457C12.6802 13.3393 13.1298 12.7332 13.5801 12.1275L17.4573 6.90527C17.4954 6.85538 17.5354 6.80814 17.5747 6.75977L17.6165 6.77451C17.6142 6.82364 17.9785 7.68683 17.9682 7.73445C17.5964 9.46424 16.8633 10.38 16.4903 12.1109C16.4359 12.3633 16.5205 12.4703 16.7826 12.4703C17.8398 12.4703 18.897 12.4703 19.9542 12.4737H19.9569C20.0256 12.4753 20.0925 12.4957 20.1503 12.5326C20.2081 12.5694 20.2545 12.6214 20.2845 12.6827C20.4422 12.9971 20.7485 13.5501 20.6529 13.6793C20.1828 14.3142 19.2719 14.1903 18.801 14.8244C17.5328 16.5327 16.4572 19.3218 15.1882 21.0304C15.0559 20.7633 14.9516 20.4835 14.877 20.1952C14.8636 20.1678 14.8546 20.1385 14.8503 20.1083Z" fill="#034444"/>
<path d="M15.1874 21.0324C15.1874 20.9867 15.1907 20.9411 15.1973 20.8959C15.5707 19.1612 15.9447 17.4267 16.3196 15.6922C16.3718 15.4507 16.2842 15.3404 16.0331 15.34C14.9759 15.34 13.9187 15.34 12.8615 15.3381C12.7813 15.3414 12.7013 15.3266 12.6276 15.295C12.4847 15.2228 12.4695 15.0603 12.5827 14.9072C13.0315 14.3008 13.4812 13.6948 13.9317 13.0894C15.224 11.3486 16.5163 9.60776 17.8086 7.86676C17.8467 7.81687 17.9148 7.72806 17.954 7.67969C17.9603 7.69811 17.9648 7.7171 17.9674 7.73637C17.9689 7.7855 17.9663 7.83467 17.9598 7.88339C17.588 9.61306 17.2152 11.3427 16.8416 13.0724C16.7871 13.3252 16.8717 13.4318 17.1334 13.4322C18.1906 13.4322 19.2483 13.4322 20.3055 13.4356C20.3998 13.4349 20.4924 13.4611 20.5721 13.5112C20.6864 13.592 20.6758 13.733 20.5641 13.8842C20.094 14.5189 19.6235 15.1531 19.1526 15.7871C17.8839 17.4956 16.6152 19.2038 15.3463 20.9118C15.3101 20.9606 15.2666 21.0044 15.2266 21.0505L15.1874 21.0324Z" fill="#72CDCD"/>
</svg>
