<svg width="32" height="32" viewBox="0 0 32 32" fill="none" xmlns="http://www.w3.org/2000/svg">
<path d="M15.9927 25.7352C19.6594 25.7352 22.6319 24.4055 22.6319 22.7651C22.6319 21.1247 19.6594 19.7949 15.9927 19.7949C12.326 19.7949 9.35352 21.1247 9.35352 22.7651C9.35352 24.4055 12.326 25.7352 15.9927 25.7352Z" fill="#72CDCD"/>
<path d="M15.9932 24.6125C19.3037 24.6125 21.9874 23.4954 21.9874 22.1173C21.9874 20.7392 19.3037 19.6221 15.9932 19.6221C12.6827 19.6221 9.99902 20.7392 9.99902 22.1173C9.99902 23.4954 12.6827 24.6125 15.9932 24.6125Z" fill="#034444"/>
<path d="M21.9878 20.5049H9.99902V22.1166H21.9878V20.5049Z" fill="#034444"/>
<path d="M15.9923 23.0032C19.3028 23.0032 21.9865 21.886 21.9865 20.5079C21.9865 19.1298 19.3028 18.0127 15.9923 18.0127C12.6817 18.0127 9.99805 19.1298 9.99805 20.5079C9.99805 21.886 12.6817 23.0032 15.9923 23.0032Z" fill="#058888"/>
<path d="M15.9919 20.547C20.114 20.547 23.4555 17.3498 23.4555 13.4058C23.4555 9.46187 20.114 6.26465 15.9919 6.26465C11.8699 6.26465 8.52832 9.46187 8.52832 13.4058C8.52832 17.3498 11.8699 20.547 15.9919 20.547Z" fill="#034444"/>
<path d="M16.4362 20.5751C20.322 20.5751 23.472 17.5611 23.472 13.8432C23.472 10.1253 20.322 7.11133 16.4362 7.11133C12.5504 7.11133 9.40039 10.1253 9.40039 13.8432C9.40039 17.5611 12.5504 20.5751 16.4362 20.5751Z" fill="white"/>
<path d="M16.4257 20.4842C15.0535 20.4823 13.7127 20.0914 12.5727 19.3608C11.4326 18.6302 10.5445 17.5927 10.0204 16.3794C9.49632 15.1661 9.35984 13.8313 9.62818 12.5438C9.89653 11.2563 10.5577 10.0738 11.5281 9.1456C12.4985 8.21743 13.7347 7.58526 15.0804 7.32896C16.4261 7.07266 17.8211 7.20373 19.089 7.7056C20.3569 8.20748 21.441 9.05764 22.2042 10.1487C22.9673 11.2398 23.3754 12.5227 23.3769 13.8356C23.3761 15.5991 22.6434 17.2901 21.3399 18.5369C20.0364 19.7837 18.2688 20.4841 16.4257 20.4842ZM9.92072 13.6306H12.9289L13.2208 11.1247C13.2257 11.1271 13.2134 11.1157 13.2007 11.1157C12.3545 11.1133 11.508 11.1094 10.6618 11.1157C10.6268 11.1233 10.5941 11.1385 10.5662 11.16C10.5382 11.1815 10.5157 11.2088 10.5004 11.2398C10.3894 11.4774 10.2911 11.7202 10.206 11.9673C10.0215 12.5043 9.92529 13.0654 9.92072 13.6306ZM19.649 11.1098L19.9417 13.6325H22.9495C22.9495 13.5681 22.952 13.5147 22.9495 13.4624C22.9054 12.7078 22.718 11.9671 22.3965 11.2767C22.38 11.2222 22.3437 11.1752 22.2942 11.144C22.2447 11.1128 22.1851 11.0996 22.1263 11.1067C21.366 11.1137 20.6072 11.1098 19.8452 11.1098H19.649ZM9.91541 14.0521C9.93504 14.8962 10.1429 15.7266 10.5251 16.4876C10.5481 16.5139 10.577 16.535 10.6095 16.5494C10.6421 16.5638 10.6776 16.5711 10.7135 16.5709C11.5166 16.5764 12.3201 16.5748 13.1231 16.5736C13.156 16.572 13.1885 16.5672 13.2204 16.5595L12.9285 14.0509L9.91541 14.0521ZM19.6486 16.5752C20.5013 16.5752 21.3606 16.5775 22.2199 16.5693C22.2733 16.5693 22.3529 16.4931 22.3747 16.4365C22.5287 16.0755 22.6607 15.7063 22.7701 15.3307C22.8752 14.9171 22.9191 14.4893 22.9914 14.0595H19.9405L19.6486 16.5752ZM13.6913 11.1196C13.4956 11.9449 13.3907 12.7875 13.3785 13.6337H16.2114V11.1196H13.6913ZM19.4938 13.6361C19.4826 12.7896 19.3761 11.9467 19.1764 11.122H16.6581V13.6361H19.4938ZM16.2142 16.5662V14.0556H13.376C13.3894 14.9008 13.4961 15.7424 13.6942 16.5662H16.2142ZM19.1797 16.5662C19.3767 15.7433 19.4806 14.9025 19.4897 14.0583H16.656V16.5662H19.1797ZM22.0906 16.9841H19.5041C19.2415 18.0877 18.6788 19.1053 17.8729 19.9339C18.7507 19.7468 19.5785 19.388 20.3043 18.88C21.0302 18.372 21.6384 17.7259 22.0906 16.9822V16.9841ZM10.7808 16.9841C11.2328 17.727 11.8406 18.3723 12.566 18.8793C13.2914 19.3864 14.1186 19.7442 14.9957 19.9303C14.1916 19.1023 13.6298 18.0861 13.367 16.9841H10.7808ZM17.8425 7.73384C17.9821 7.87801 18.0921 7.9829 18.1923 8.09642C18.7859 8.80668 19.2119 9.63134 19.4412 10.5139C19.4864 10.6651 19.5435 10.7213 19.7139 10.7181C20.3096 10.7071 20.9045 10.7138 21.5023 10.7138H22.0976C21.6389 9.96509 21.0245 9.31433 20.2925 8.80177C19.5605 8.28921 18.7263 7.92575 17.8417 7.73384H17.8425ZM14.992 7.77862C13.6343 7.85719 11.1327 9.63001 10.828 10.7044H13.3682C13.6266 9.60782 14.187 8.59737 14.9911 7.77784L14.992 7.77862ZM16.2175 7.61874C15.9002 7.66426 15.6039 7.79814 15.3656 8.00371C14.5005 8.7163 14.1171 9.68422 13.7985 10.7024H16.2175V7.61874ZM19.0882 10.7028C18.9613 10.3611 18.8549 10.035 18.7186 9.71879C18.4734 9.06993 18.0661 8.48829 17.5322 8.02453C17.2892 7.80944 16.9844 7.66905 16.6572 7.6215V10.7028H19.0882ZM16.2142 20.0706V16.9849H13.7965C13.8749 17.2159 13.9401 17.4323 14.0218 17.6433C14.2678 18.3857 14.6986 19.0597 15.2773 19.6074C15.5352 19.8456 15.8606 20.0059 16.213 20.0686L16.2142 20.0706ZM16.6527 20.0729C17.1753 19.9608 17.6365 19.6685 17.9484 19.2519C18.367 18.7358 18.6867 18.1529 18.8927 17.5302C18.9568 17.353 19.0114 17.1731 19.0722 16.9873H16.6498L16.6527 20.0729Z" fill="#058888"/>
</svg>
