<svg width="32" height="32" viewBox="0 0 32 32" fill="none" xmlns="http://www.w3.org/2000/svg">
<path d="M16.0001 25.4327C19.6127 25.4327 22.5412 24.1226 22.5412 22.5064C22.5412 20.8902 19.6127 19.5801 16.0001 19.5801C12.3875 19.5801 9.45898 20.8902 9.45898 22.5064C9.45898 24.1226 12.3875 25.4327 16.0001 25.4327Z" fill="#72CDCD"/>
<path d="M16.0005 24.3323C19.2622 24.3323 21.9063 23.2317 21.9063 21.8741C21.9063 20.5166 19.2622 19.416 16.0005 19.416C12.7388 19.416 10.0947 20.5166 10.0947 21.8741C10.0947 23.2317 12.7388 24.3323 16.0005 24.3323Z" fill="#034444"/>
<path d="M21.9063 20.2842H10.0947V21.8721H21.9063V20.2842Z" fill="#034444"/>
<path d="M16.0005 22.7444C19.2622 22.7444 21.9063 21.6438 21.9063 20.2862C21.9063 18.9287 19.2622 17.8281 16.0005 17.8281C12.7388 17.8281 10.0947 18.9287 10.0947 20.2862C10.0947 21.6438 12.7388 22.7444 16.0005 22.7444Z" fill="#058888"/>
<path d="M19.6798 6.56738H12.5721C11.8597 6.56738 11.2822 7.11992 11.2822 7.8015V18.3657C11.2822 19.0473 11.8597 19.5998 12.5721 19.5998H19.6798C20.3922 19.5998 20.9696 19.0473 20.9696 18.3657V7.8015C20.9696 7.11992 20.3922 6.56738 19.6798 6.56738Z" fill="#72CDCD"/>
<path d="M19.6798 20.6857H12.5725C12.2303 20.6857 11.9022 20.5557 11.6603 20.3243C11.4183 20.0929 11.2823 19.779 11.2822 19.4516V8.88783C11.2822 8.56042 11.4182 8.24641 11.6601 8.0149C11.9021 7.78338 12.2303 7.65332 12.5725 7.65332H19.6798C20.022 7.65332 20.3502 7.78338 20.5921 8.0149C20.8341 8.24641 20.9701 8.56042 20.9701 8.88783V19.4516C20.97 19.779 20.834 20.0929 20.592 20.3243C20.35 20.5557 20.0219 20.6857 19.6798 20.6857Z" fill="#034444"/>
<path d="M18.3718 18.2509C18.3764 18.1187 18.3276 17.9899 18.2354 17.8912C18.1433 17.7926 18.015 17.7317 17.8772 17.7212C17.8524 17.7189 17.8276 17.7174 17.8028 17.7162L17.7621 17.7139C17.4624 17.6997 17.1804 17.5737 16.9767 17.3629C16.773 17.1522 16.6637 16.8734 16.6724 16.5864V16.3198V16.1314H16.9616C17.0454 16.1337 17.1286 16.1173 17.2046 16.0835C17.2806 16.0498 17.3474 15.9995 17.3996 15.9368C17.4631 15.8608 17.503 15.7692 17.5146 15.6725C17.5262 15.5758 17.5091 15.4779 17.4652 15.3901C17.4214 15.3022 17.3525 15.228 17.2666 15.1759C17.1807 15.1238 17.0812 15.0959 16.9795 15.0954C16.8766 15.0934 16.7761 15.0954 16.6711 15.0954V14.8093C16.6711 13.9294 16.6675 12.2921 16.6711 11.7067C16.6718 11.6298 16.6813 11.5532 16.6996 11.4783C16.7598 11.2364 16.9025 11.0207 17.1051 10.8652C17.3078 10.7097 17.5589 10.6233 17.8186 10.6197C17.8909 10.6209 17.9627 10.6082 18.0297 10.5823C18.0968 10.5563 18.1576 10.5178 18.2087 10.4688C18.2598 10.4199 18.3001 10.3616 18.3272 10.2975C18.3542 10.2333 18.3674 10.1646 18.3661 10.0955C18.3655 10.0279 18.3509 9.96117 18.3229 9.89914C18.295 9.83711 18.2544 9.78106 18.2034 9.7343L18.201 9.73196C18.1451 9.68329 18.0797 9.64566 18.0086 9.62122C17.9375 9.59677 17.862 9.586 17.7865 9.58952C17.5825 9.82567 17.3265 10.0158 17.0369 10.1465C16.7473 10.2772 16.4311 10.3451 16.1109 10.3454C15.7907 10.3458 15.4743 10.2785 15.1844 10.1484C14.8945 10.0184 14.6381 9.82874 14.4335 9.59302C14.3019 9.58971 14.1736 9.63313 14.0734 9.7149C13.9733 9.79667 13.9083 9.91102 13.8909 10.0359C13.8736 10.1545 13.9 10.2751 13.9655 10.3771C14.0311 10.4791 14.1317 10.5561 14.2501 10.5948C14.315 10.6128 14.3819 10.623 14.4494 10.6251H14.4718C14.6231 10.6293 14.7722 10.6621 14.9103 10.7217C15.0483 10.7812 15.1727 10.8663 15.2763 10.972C15.3798 11.0778 15.4604 11.2021 15.5135 11.3378C15.5666 11.4735 15.591 11.6179 15.5855 11.7628C15.5855 12.2656 15.5879 13.6134 15.5892 14.505V15.0946C15.4814 15.0946 15.378 15.0946 15.2723 15.0973C15.1323 15.1009 14.9993 15.1563 14.9011 15.2517C14.8029 15.3472 14.7473 15.4754 14.7458 15.6093C14.7443 15.7432 14.7972 15.8725 14.8932 15.9699C14.9893 16.0674 15.1211 16.1254 15.2609 16.1318C15.3122 16.1349 15.3597 16.1341 15.4061 16.1337H15.5904V16.3638C15.5904 16.4105 15.5904 16.4926 15.5904 16.6362C15.5897 16.7123 15.5802 16.7882 15.5619 16.8623C15.5072 17.1038 15.368 17.3202 15.1675 17.4758C14.967 17.6315 14.717 17.7171 14.4588 17.7185C14.384 17.7175 14.3097 17.7309 14.2405 17.7579C14.1713 17.785 14.1086 17.8252 14.056 17.8761C14.0035 17.927 13.9622 17.9876 13.9348 18.0541C13.9073 18.1207 13.8942 18.1919 13.8962 18.2634C13.901 18.3943 13.9594 18.5182 14.0589 18.6082C14.1205 18.6602 14.1924 18.6997 14.2703 18.7245C14.3483 18.7492 14.4306 18.7586 14.5124 18.7522C14.7129 18.5165 14.9657 18.3264 15.2524 18.1958C15.5392 18.0651 15.8528 17.9972 16.1704 17.9969C16.488 17.9967 16.8017 18.0641 17.0887 18.1942C17.3756 18.3244 17.6287 18.5141 17.8296 18.7495C17.9701 18.7507 18.1056 18.6992 18.2069 18.606C18.3083 18.5128 18.3674 18.3854 18.3718 18.2509Z" fill="white"/>
</svg>
