<svg width="32" height="32" viewBox="0 0 32 32" fill="none" xmlns="http://www.w3.org/2000/svg">
<path d="M16.3931 24.4855C19.8894 24.4855 22.7237 23.2176 22.7237 21.6534C22.7237 20.0893 19.8894 18.8213 16.3931 18.8213C12.8968 18.8213 10.0625 20.0893 10.0625 21.6534C10.0625 23.2176 12.8968 24.4855 16.3931 24.4855Z" fill="#72CDCD"/>
<path d="M16.3934 23.4162C19.5501 23.4162 22.1091 22.3511 22.1091 21.0372C22.1091 19.7233 19.5501 18.6582 16.3934 18.6582C13.2367 18.6582 10.6777 19.7233 10.6777 21.0372C10.6777 22.3511 13.2367 23.4162 16.3934 23.4162Z" fill="#034444"/>
<path d="M22.1091 19.498H10.6777V21.0348H22.1091V19.498Z" fill="#034444"/>
<path d="M16.3934 21.8791C19.5501 21.8791 22.1091 20.814 22.1091 19.5001C22.1091 18.1862 19.5501 17.1211 16.3934 17.1211C13.2367 17.1211 10.6777 18.1862 10.6777 19.5001C10.6777 20.814 13.2367 21.8791 16.3934 21.8791Z" fill="#058888"/>
<path d="M15.9997 20.4831C19.7425 20.4831 22.7767 17.5801 22.7767 13.9989C22.7767 10.4177 19.7425 7.51465 15.9997 7.51465C12.2568 7.51465 9.22266 10.4177 9.22266 13.9989C9.22266 17.5801 12.2568 20.4831 15.9997 20.4831Z" fill="#72CDCD"/>
<path d="M16.4567 20.4845C19.9471 20.4845 22.7766 17.7772 22.7766 14.4376C22.7766 11.0979 19.9471 8.39062 16.4567 8.39062C12.9663 8.39062 10.1367 11.0979 10.1367 14.4376C10.1367 17.7772 12.9663 20.4845 16.4567 20.4845Z" fill="#034444"/>
<path d="M16.4769 19.0096C15.0526 19.0096 13.9365 17.0009 13.9365 14.4369C13.9365 11.873 15.0526 9.86426 16.4769 9.86426C17.9012 9.86426 19.0168 11.873 19.0168 14.4369C19.0168 17.0009 17.9012 19.0096 16.4769 19.0096ZM16.4769 10.3355C15.9541 10.3355 15.4242 10.7464 15.0203 11.4632C14.568 12.3948 14.3337 13.4097 14.3337 14.4369C14.3337 15.4642 14.568 16.479 15.0203 17.4107C15.4222 18.1264 15.9521 18.5384 16.4769 18.5384C17.0016 18.5384 17.5295 18.1275 17.9311 17.4107C18.3836 16.4791 18.618 15.4642 18.618 14.4369C18.618 13.4097 18.3836 12.3948 17.9311 11.4632C17.5295 10.7464 16.9993 10.3355 16.4769 10.3355Z" fill="white"/>
<path d="M15.3868 16.6305C12.9665 15.5299 11.5493 13.7035 12.1587 12.4726C12.7681 11.2416 15.1451 11.1396 17.5654 12.2402C19.9856 13.3408 21.4029 15.1672 20.7935 16.3981C20.1841 17.6291 17.8071 17.7304 15.3868 16.6305ZM13.0457 14.4158C13.731 15.2065 14.5885 15.8447 15.5582 16.2856C16.5279 16.7266 17.5865 16.9597 18.6601 16.9688C19.5089 16.9311 20.1246 16.6475 20.3486 16.1959C20.5726 15.7443 20.4128 15.1096 19.9089 14.4549C19.2235 13.6641 18.3661 13.0258 17.3962 12.5849C16.4264 12.1439 15.3677 11.9108 14.294 11.9019C13.4452 11.9396 12.8299 12.2232 12.6055 12.6748C12.3811 13.1265 12.5418 13.7607 13.0457 14.4158Z" fill="white"/>
<path d="M12.1619 16.4027C11.5497 15.1725 12.9654 13.345 15.3848 12.2425C17.8043 11.14 20.1789 11.2405 20.7915 12.4711C21.404 13.7017 19.9884 15.5288 17.5689 16.631C15.1494 17.7331 12.7744 17.6333 12.1619 16.4027ZM20.4639 12.6203C20.2325 12.1551 19.5979 11.8669 18.7235 11.8251C17.6174 11.8353 16.527 12.0763 15.5283 12.5313C14.5296 12.9863 13.6468 13.6443 12.9413 14.4595C12.4229 15.1349 12.2579 15.7887 12.4894 16.2535C12.7209 16.7183 13.3555 17.0069 14.2298 17.0487C15.336 17.0386 16.4264 16.7975 17.4251 16.3425C18.4238 15.8874 19.3067 15.2292 20.012 14.4139C20.5309 13.7393 20.6954 13.0851 20.4639 12.6203Z" fill="white"/>
<path d="M20.5655 13.1258C20.9166 13.1258 21.2012 12.8535 21.2012 12.5175C21.2012 12.1815 20.9166 11.9092 20.5655 11.9092C20.2143 11.9092 19.9297 12.1815 19.9297 12.5175C19.9297 12.8535 20.2143 13.1258 20.5655 13.1258Z" fill="#058888"/>
<path d="M15.3633 11.1707C15.7144 11.1707 15.9991 10.8984 15.9991 10.5624C15.9991 10.2265 15.7144 9.9541 15.3633 9.9541C15.0122 9.9541 14.7275 10.2265 14.7275 10.5624C14.7275 10.8984 15.0122 11.1707 15.3633 11.1707Z" fill="#058888"/>
<path d="M13.1348 17.66C13.4859 17.66 13.7706 17.3876 13.7706 17.0517C13.7706 16.7157 13.4859 16.4434 13.1348 16.4434C12.7837 16.4434 12.499 16.7157 12.499 17.0517C12.499 17.3876 12.7837 17.66 13.1348 17.66Z" fill="#058888"/>
</svg>
