<svg width="32" height="32" viewBox="0 0 32 32" fill="none" xmlns="http://www.w3.org/2000/svg">
<path d="M15.9999 25.6094C19.6323 25.6094 22.577 24.292 22.577 22.667C22.577 21.042 19.6323 19.7246 15.9999 19.7246C12.3675 19.7246 9.42285 21.042 9.42285 22.667C9.42285 24.292 12.3675 25.6094 15.9999 25.6094Z" fill="#72CDCD"/>
<path d="M16.0007 24.4989C19.2803 24.4989 21.9389 23.3923 21.9389 22.0273C21.9389 20.6622 19.2803 19.5557 16.0007 19.5557C12.7211 19.5557 10.0625 20.6622 10.0625 22.0273C10.0625 23.3923 12.7211 24.4989 16.0007 24.4989Z" fill="#034444"/>
<path d="M21.9389 20.4326H10.0625V22.0292H21.9389V20.4326Z" fill="#034444"/>
<path d="M16.0007 22.9013C19.2803 22.9013 21.9389 21.7947 21.9389 20.4296C21.9389 19.0646 19.2803 17.958 16.0007 17.958C12.7211 17.958 10.0625 19.0646 10.0625 20.4296C10.0625 21.7947 12.7211 22.9013 16.0007 22.9013Z" fill="#058888"/>
<path d="M15.9996 21.8161C17.8385 21.8161 19.3292 21.1955 19.3292 20.43C19.3292 19.6645 17.8385 19.0439 15.9996 19.0439C14.1607 19.0439 12.6699 19.6645 12.6699 20.43C12.6699 21.1955 14.1607 21.8161 15.9996 21.8161Z" fill="#72CDCD"/>
<path d="M19.3296 16.71H12.6699V20.4299H19.3296V16.71Z" fill="#72CDCD"/>
<path d="M15.9996 18.0974C17.8385 18.0974 19.3292 17.4768 19.3292 16.7113C19.3292 15.9458 17.8385 15.3252 15.9996 15.3252C14.1607 15.3252 12.6699 15.9458 12.6699 16.7113C12.6699 17.4768 14.1607 18.0974 15.9996 18.0974Z" fill="#034444"/>
<path d="M16.0003 17.5309C17.6201 17.5309 18.9332 16.9845 18.9332 16.3104C18.9332 15.6363 17.6201 15.0898 16.0003 15.0898C14.3805 15.0898 13.0674 15.6363 13.0674 16.3104C13.0674 16.9845 14.3805 17.5309 16.0003 17.5309Z" fill="#058888"/>
<path d="M18.9332 15.5176H13.0674V16.3503H18.9332V15.5176Z" fill="#058888"/>
<path d="M16.0003 16.737C17.6201 16.737 18.9332 16.1905 18.9332 15.5165C18.9332 14.8424 17.6201 14.2959 16.0003 14.2959C14.3805 14.2959 13.0674 14.8424 13.0674 15.5165C13.0674 16.1905 14.3805 16.737 16.0003 16.737Z" fill="#72CDCD"/>
<path d="M19.4455 10.3199C18.4072 9.05126 17.3701 7.78179 16.3343 6.51154C16.3073 6.47867 16.2766 6.44854 16.2373 6.40588C16.233 6.4267 16.2299 6.44774 16.2279 6.46889C16.2279 8.43257 16.2269 10.3963 16.225 12.3599C16.225 12.4406 16.2631 12.4672 16.3277 12.4996C16.4693 12.5703 16.5816 12.6848 16.6464 12.8245C16.7112 12.9642 16.7246 13.1207 16.6844 13.2686C16.6576 13.3625 16.6103 13.4498 16.5455 13.5247C16.4806 13.5996 16.3998 13.6604 16.3084 13.7029C16.217 13.7455 16.1171 13.7689 16.0154 13.7716C15.9138 13.7742 15.8128 13.756 15.7191 13.7182C15.6334 13.6833 15.5558 13.6325 15.4909 13.5686C15.4259 13.5047 15.3749 13.429 15.3408 13.3461C15.2764 13.1963 15.2719 13.029 15.3282 12.8762C15.3845 12.7234 15.4975 12.5958 15.6459 12.5176C15.6897 12.4985 15.726 12.4663 15.749 12.4258C15.772 12.3852 15.7806 12.3386 15.7735 12.293C15.7702 10.3886 15.7694 8.48409 15.771 6.57963V6.39062C15.7248 6.4415 15.7028 6.4638 15.6831 6.48767C15.4764 6.75221 15.2678 7.01531 15.0574 7.27698C14.531 7.93207 13.9939 8.5801 13.4582 9.22697C13.1899 9.55046 12.9217 9.87409 12.6537 10.1979C12.4341 10.4636 12.2136 10.7023 12.3175 11.0697C12.4845 11.5579 12.691 12.0328 12.9351 12.4903C13.295 13.2588 13.6541 14.0275 14.0124 14.7964L14.2578 15.327C14.2711 15.361 14.2939 15.3909 14.3236 15.4135C14.6791 15.7399 15.154 15.9204 15.6467 15.9163C15.6148 15.8609 15.5978 15.7988 15.5973 15.7355C15.5976 15.6345 15.6391 15.5376 15.713 15.4654C15.7868 15.3933 15.8872 15.3515 15.9927 15.3489C16.0627 15.3481 16.1316 15.3648 16.1927 15.3975C16.2538 15.4301 16.3049 15.4775 16.3409 15.5349C16.3769 15.5923 16.3965 15.6577 16.3979 15.7246C16.3992 15.7916 16.3822 15.8577 16.3485 15.9163C16.8403 15.9201 17.3144 15.7405 17.67 15.4154C17.7013 15.3935 17.7252 15.3633 17.7387 15.3286C18.3498 14.0134 18.9633 12.6995 19.5792 11.3867C19.6604 11.2141 19.6909 11.0235 19.6673 10.8355C19.6437 10.6476 19.567 10.4693 19.4455 10.3199Z" fill="#034444"/>
</svg>
