<svg width="32" height="32" viewBox="0 0 32 32" fill="none" xmlns="http://www.w3.org/2000/svg">
<path d="M16.0282 23.4147C19.3704 23.4147 22.0798 22.2025 22.0798 20.7073C22.0798 19.2121 19.3704 18 16.0282 18C12.686 18 9.97656 19.2121 9.97656 20.7073C9.97656 22.2025 12.686 23.4147 16.0282 23.4147Z" fill="#72CDCD"/>
<path d="M16.0283 22.394C19.0458 22.394 21.4921 21.3759 21.4921 20.1199C21.4921 18.8639 19.0458 17.8457 16.0283 17.8457C13.0107 17.8457 10.5645 18.8639 10.5645 20.1199C10.5645 21.3759 13.0107 22.394 16.0283 22.394Z" fill="#034444"/>
<path d="M21.4921 18.6523H10.5645V20.1214H21.4921V18.6523Z" fill="#034444"/>
<path d="M16.0292 20.9233C19.0468 20.9233 21.4931 19.9052 21.4931 18.6492C21.4931 17.3932 19.0468 16.375 16.0292 16.375C13.0117 16.375 10.5654 17.3932 10.5654 18.6492C10.5654 19.9052 13.0117 20.9233 16.0292 20.9233Z" fill="#058888"/>
<path d="M13.9822 16.1339L8.89062 13.2231L13.7478 9.76074L14.3149 10.4888L10.5957 13.14L14.4688 15.354L13.9822 16.1339Z" fill="#72CDCD"/>
<path d="M18.8613 16.4203L18.2923 15.5781L22.4758 12.9904L18.2637 10.2038L18.8598 9.37891L24.3608 13.0181L18.8613 16.4203Z" fill="#72CDCD"/>
<path d="M18.2637 10.2041L18.2832 11.2555L21.7078 13.4652L22.4747 12.9906L18.2637 10.2041Z" fill="#058888"/>
<path d="M13.7473 9.76074L12.7888 9.77694L7.63965 13.244L8.89016 13.2228L13.7473 9.76074Z" fill="#034444"/>
<path d="M7.63965 13.2468L12.7922 16.1972L13.9818 16.1364L8.89016 13.2256L7.63965 13.2468Z" fill="#058888"/>
<path d="M21.2265 13.1537L18.5599 14.6555L18.292 15.578L22.4755 12.9902L21.2265 13.1537Z" fill="#034444"/>
<path d="M16.8406 8.5884L14.9365 17.1543L15.8647 17.3432L17.7688 8.77728L16.8406 8.5884Z" fill="#058888"/>
<path d="M16.8367 8.58496L16.3136 8.846L14.3379 17.4948L14.9366 17.1523L16.8367 8.58496Z" fill="#034444"/>
<path d="M14.3379 17.4967L15.3163 17.6872L15.8646 17.343L14.9362 17.1543L14.3379 17.4967Z" fill="#058888"/>
</svg>
