<svg width="32" height="32" viewBox="0 0 32 32" fill="none" xmlns="http://www.w3.org/2000/svg">
<path d="M15.0003 24.6883C18.5228 24.6883 21.3784 23.4108 21.3784 21.8349C21.3784 20.259 18.5228 18.9814 15.0003 18.9814C11.4777 18.9814 8.62207 20.259 8.62207 21.8349C8.62207 23.4108 11.4777 24.6883 15.0003 24.6883Z" fill="#72CDCD"/>
<path d="M15.0008 23.6102C18.1813 23.6102 20.7595 22.5371 20.7595 21.2133C20.7595 19.8895 18.1813 18.8164 15.0008 18.8164C11.8204 18.8164 9.24219 19.8895 9.24219 21.2133C9.24219 22.5371 11.8204 23.6102 15.0008 23.6102Z" fill="#034444"/>
<path d="M20.7595 19.667H9.24219V21.2153H20.7595V19.667Z" fill="#034444"/>
<path d="M15.0008 22.0614C18.1813 22.0614 20.7595 20.9882 20.7595 19.6645C20.7595 18.3407 18.1813 17.2676 15.0008 17.2676C11.8204 17.2676 9.24219 18.3407 9.24219 19.6645C9.24219 20.9882 11.8204 22.0614 15.0008 22.0614Z" fill="#058888"/>
<path d="M15.3684 14.9463H13.751V20.0615H15.3684V14.9463Z" fill="#034444"/>
<path d="M12.0281 14.947C12.7569 14.9191 13.3105 14.0131 13.2647 12.9233C13.219 11.8335 12.5911 10.9726 11.8624 11.0004C11.1337 11.0282 10.5801 11.9343 10.6258 13.0241C10.6716 14.1139 11.2994 14.9748 12.0281 14.947Z" fill="#058888"/>
<path d="M13.5172 10.9385L11.9307 10.9988L12.0266 14.949L13.8198 14.941L13.5172 10.9385Z" fill="#058888"/>
<path d="M14.84 12.9062C14.84 14.2633 14.4116 15.3058 13.8837 15.3058C13.6854 15.3058 12.6641 14.2637 12.6641 12.9062C12.6641 11.5488 13.3558 10.4482 13.8837 10.4482C14.4116 10.4482 14.84 11.5488 14.84 12.9062Z" fill="#034444"/>
<path d="M16.7445 9.75098C15.8079 10.0429 14.8519 10.2741 13.8828 10.4432V15.3049L16.7092 15.6916L16.7445 9.75098Z" fill="#034444"/>
<path d="M19.761 18.2108C21.7594 18.2108 23.3795 15.7712 23.3795 12.7617C23.3795 9.75218 21.7594 7.3125 19.761 7.3125C17.7626 7.3125 16.1426 9.75218 16.1426 12.7617C16.1426 15.7712 17.7626 18.2108 19.761 18.2108Z" fill="#72CDCD"/>
<path d="M19.2916 17.4227C20.8026 17.4227 22.0276 15.3361 22.0276 12.7621C22.0276 10.1882 20.8026 8.10156 19.2916 8.10156C17.7806 8.10156 16.5557 10.1882 16.5557 12.7621C16.5557 15.3361 17.7806 17.4227 19.2916 17.4227Z" fill="#034444"/>
<path d="M16.6654 11.3965C16.5005 12.3875 16.5199 13.3986 16.7228 14.3831L20.3266 13.8863V11.6936L16.6654 11.3965Z" fill="#72CDCD"/>
<path d="M20.3263 13.8851C20.7158 13.8851 21.0315 13.3942 21.0315 12.7887C21.0315 12.1832 20.7158 11.6924 20.3263 11.6924C19.9368 11.6924 19.6211 12.1832 19.6211 12.7887C19.6211 13.3942 19.9368 13.8851 20.3263 13.8851Z" fill="#058888"/>
<path d="M14.5597 20.3978C15.0064 20.3978 15.3684 20.2471 15.3684 20.0612C15.3684 19.8753 15.0064 19.7246 14.5597 19.7246C14.1131 19.7246 13.751 19.8753 13.751 20.0612C13.751 20.2471 14.1131 20.3978 14.5597 20.3978Z" fill="#034444"/>
</svg>
