<svg width="32" height="32" viewBox="0 0 32 32" fill="none" xmlns="http://www.w3.org/2000/svg">
<path d="M16.0288 23.4135C19.3703 23.4135 22.0792 22.2016 22.0792 20.7067C22.0792 19.2119 19.3703 18 16.0288 18C12.6873 18 9.97852 19.2119 9.97852 20.7067C9.97852 22.2016 12.6873 23.4135 16.0288 23.4135Z" fill="#72CDCD"/>
<path d="M16.029 22.3931C19.046 22.3931 21.4917 21.3751 21.4917 20.1194C21.4917 18.8637 19.046 17.8457 16.029 17.8457C13.0121 17.8457 10.5664 18.8637 10.5664 20.1194C10.5664 21.3751 13.0121 22.3931 16.029 22.3931Z" fill="#034444"/>
<path d="M21.4917 18.6523H10.5664V20.1211H21.4917V18.6523Z" fill="#034444"/>
<path d="M16.029 20.9224C19.046 20.9224 21.4917 19.9044 21.4917 18.6487C21.4917 17.393 19.046 16.375 16.029 16.375C13.0121 16.375 10.5664 17.393 10.5664 18.6487C10.5664 19.9044 13.0121 20.9224 16.029 20.9224Z" fill="#058888"/>
<path d="M13.9831 16.1345L8.89258 13.2243L13.7487 9.7627L14.3157 10.4906L10.5973 13.1412L14.4696 15.3547L13.9831 16.1345Z" fill="#72CDCD"/>
<path d="M18.8602 16.4208L18.2913 15.5788L22.474 12.9915L18.2627 10.2056L18.8587 9.38086L24.3586 13.0193L18.8602 16.4208Z" fill="#72CDCD"/>
<path d="M18.2627 10.2061L18.2823 11.2572L21.706 13.4665L22.4728 12.992L18.2627 10.2061Z" fill="#058888"/>
<path d="M13.748 9.7627L12.7897 9.77889L7.6416 13.2452L8.89185 13.224L13.748 9.7627Z" fill="#034444"/>
<path d="M7.6416 13.2478L12.7931 16.1975L13.9824 16.1367L8.89185 13.2266L7.6416 13.2478Z" fill="#058888"/>
<path d="M21.2259 13.1546L18.5598 14.6562L18.292 15.5784L22.4746 12.9912L21.2259 13.1546Z" fill="#034444"/>
<path d="M16.8411 8.59122L14.9375 17.1553L15.8655 17.3441L17.7691 8.78006L16.8411 8.59122Z" fill="#058888"/>
<path d="M16.8361 8.58691L16.3132 8.8479L14.3379 17.4948L14.9365 17.1525L16.8361 8.58691Z" fill="#034444"/>
<path d="M14.3379 17.4966L15.3161 17.6871L15.8643 17.3429L14.9361 17.1543L14.3379 17.4966Z" fill="#058888"/>
<path d="M9.79883 9.20117L21.9318 16.73" stroke="#034444" stroke-width="2.40755" stroke-miterlimit="10"/>
</svg>
