<svg width="32" height="32" viewBox="0 0 32 32" fill="none" xmlns="http://www.w3.org/2000/svg">
<path d="M15.7639 25.0527C19.3318 25.0527 22.2241 23.7587 22.2241 22.1626C22.2241 20.5664 19.3318 19.2725 15.7639 19.2725C12.196 19.2725 9.30371 20.5664 9.30371 22.1626C9.30371 23.7587 12.196 25.0527 15.7639 25.0527Z" fill="#72CDCD"/>
<path d="M15.7643 23.9619C18.9856 23.9619 21.597 22.8749 21.597 21.5342C21.597 20.1934 18.9856 19.1064 15.7643 19.1064C12.543 19.1064 9.93164 20.1934 9.93164 21.5342C9.93164 22.8749 12.543 23.9619 15.7643 23.9619Z" fill="#034444"/>
<path d="M21.597 19.9678H9.93164V21.536H21.597V19.9678Z" fill="#034444"/>
<path d="M15.7643 22.3925C18.9856 22.3925 21.597 21.3056 21.597 19.9648C21.597 18.624 18.9856 17.5371 15.7643 17.5371C12.543 17.5371 9.93164 18.624 9.93164 19.9648C9.93164 21.3056 12.543 22.3925 15.7643 22.3925Z" fill="#058888"/>
<path d="M14.8706 15.9116L16.2109 16.5293L17.0994 14.7644L15.7591 14.1467L14.8706 15.9116Z" fill="#058888"/>
<path d="M15.3901 16.1743L16.5566 16.7119L17.3302 15.1753L16.1636 14.6376L15.3901 16.1743Z" fill="#72CDCD"/>
<path d="M13.7484 12.7381C14.0455 13.5507 14.5877 14.2607 15.3066 14.7784C16.0254 15.2962 16.8886 15.5983 17.7869 15.6467C18.6853 15.695 19.5784 15.4874 20.3534 15.0501C21.1284 14.6128 21.7504 13.9654 22.1409 13.1898C22.5314 12.4143 22.6727 11.5453 22.547 10.6929C22.4213 9.84046 22.0343 9.04283 21.4348 8.40087C20.8354 7.75891 20.0504 7.30144 19.1792 7.08632C18.308 6.87121 17.3897 6.9081 16.5404 7.19234C15.9765 7.38103 15.4569 7.67415 15.0114 8.05498C14.5659 8.43581 14.2031 8.89689 13.9438 9.41187C13.6846 9.92686 13.5339 10.4857 13.5003 11.0564C13.4668 11.6271 13.5511 12.1985 13.7484 12.7381ZM15.1231 12.2768C14.921 11.7243 14.8947 11.1268 15.0475 10.5599C15.2003 9.99301 15.5254 9.48222 15.9816 9.09213C16.4378 8.70204 17.0047 8.45017 17.6106 8.36838C18.2165 8.28659 18.834 8.37856 19.3853 8.63264C19.9365 8.88672 20.3966 9.29152 20.7074 9.79581C21.0181 10.3001 21.1656 10.8813 21.1312 11.4658C21.0967 12.0503 20.8818 12.6119 20.5137 13.0795C20.1457 13.5472 19.6409 13.8999 19.0633 14.093C18.2892 14.3519 17.4394 14.3062 16.7005 13.9659C15.9617 13.6255 15.3943 13.0184 15.1231 12.278V12.2768Z" fill="#034444"/>
<path d="M14.6206 12.9882C14.8919 13.7303 15.387 14.3787 16.0434 14.8515C16.6998 15.3244 17.488 15.6003 18.3084 15.6445C19.1287 15.6887 19.9444 15.4992 20.6521 15.0998C21.3599 14.7005 21.928 14.1093 22.2846 13.4011C22.6412 12.6928 22.7703 11.8993 22.6555 11.1209C22.5408 10.3424 22.1873 9.61402 21.6399 9.02777C21.0925 8.44151 20.3756 8.02374 19.5801 7.82729C18.7845 7.63083 17.9459 7.66451 17.1703 7.92406C16.1304 8.27211 15.2775 9.00118 14.7994 9.95088C14.3212 10.9006 14.2569 11.9931 14.6206 12.9882ZM15.876 12.5681C15.6916 12.0636 15.6677 11.5181 15.8073 11.0007C15.9469 10.4832 16.2437 10.017 16.6603 9.66092C17.0768 9.30487 17.5944 9.07499 18.1474 9.00036C18.7005 8.92573 19.2643 9.0097 19.7675 9.24164C20.2707 9.47359 20.6908 9.8431 20.9745 10.3034C21.2582 10.7638 21.3929 11.2943 21.3615 11.8279C21.3301 12.3615 21.1341 12.8742 20.7981 13.3011C20.4622 13.7281 20.0015 14.0502 19.4742 14.2266C18.7672 14.4631 17.991 14.4212 17.3162 14.1101C16.6415 13.7991 16.1235 13.2444 15.876 12.5681Z" fill="#72CDCD"/>
<path d="M12.9347 19.6861L14.6424 20.4733C14.7353 20.5204 14.8439 20.5305 14.9444 20.5012C15.045 20.472 15.1294 20.4058 15.1791 20.3172L16.8592 16.8859C16.901 16.7934 16.9026 16.6888 16.8638 16.5951C16.825 16.5014 16.749 16.4263 16.6523 16.3863L14.9445 15.5991C14.8517 15.5519 14.7431 15.5419 14.6425 15.5711C14.5419 15.6004 14.4576 15.6665 14.4078 15.7551L12.7278 19.1864C12.6861 19.2789 12.6845 19.3835 12.7233 19.4772C12.7621 19.5709 12.8381 19.646 12.9347 19.6861Z" fill="#034444"/>
<path d="M13.3377 19.8973L14.7204 20.535C14.7599 20.5532 14.8029 20.5639 14.8467 20.5663C14.8905 20.5686 14.9344 20.5627 14.9759 20.5489C15.0173 20.535 15.0555 20.5135 15.0883 20.4855C15.121 20.4576 15.1476 20.4237 15.1667 20.3859L16.6479 17.3678C16.6863 17.2913 16.6914 17.2034 16.6621 17.1233C16.6328 17.0432 16.5715 16.9776 16.4916 16.9407L15.1085 16.303C15.0286 16.2663 14.9368 16.2614 14.8532 16.2895C14.7695 16.3175 14.701 16.3762 14.6625 16.4526L13.1814 19.4707C13.143 19.5471 13.1379 19.6349 13.1672 19.7149C13.1965 19.7949 13.2578 19.8605 13.3377 19.8973Z" fill="#72CDCD"/>
</svg>
