<svg width="32" height="32" viewBox="0 0 32 32" fill="none" xmlns="http://www.w3.org/2000/svg">
<path d="M15.9998 24.4058C19.4854 24.4058 22.3111 23.1417 22.3111 21.5823C22.3111 20.0229 19.4854 18.7588 15.9998 18.7588C12.5142 18.7588 9.68848 20.0229 9.68848 21.5823C9.68848 23.1417 12.5142 24.4058 15.9998 24.4058Z" fill="#72CDCD"/>
<path d="M16 23.3383C19.1471 23.3383 21.6983 22.2764 21.6983 20.9665C21.6983 19.6566 19.1471 18.5947 16 18.5947C12.853 18.5947 10.3018 19.6566 10.3018 20.9665C10.3018 22.2764 12.853 23.3383 16 23.3383Z" fill="#034444"/>
<path d="M21.6983 19.4365H10.3018V20.9686H21.6983V19.4365Z" fill="#034444"/>
<path d="M16 21.807C19.1471 21.807 21.6983 20.7451 21.6983 19.4352C21.6983 18.1254 19.1471 17.0635 16 17.0635C12.853 17.0635 10.3018 18.1254 10.3018 19.4352C10.3018 20.7451 12.853 21.807 16 21.807Z" fill="#058888"/>
<path d="M18.7757 19.4013H13.2246L13.6716 18.1001C13.6913 18.0428 13.7295 17.9929 13.7806 17.9576C13.8317 17.9222 13.8931 17.9032 13.9562 17.9033H18.0442C18.1072 17.9032 18.1687 17.9222 18.2198 17.9576C18.2709 17.9929 18.309 18.0428 18.3287 18.1001L18.7757 19.4013Z" fill="#034444"/>
<path d="M15.9992 18.8897C16.5876 18.8897 17.0647 18.6378 17.0647 18.3272C17.0647 18.0165 16.5876 17.7646 15.9992 17.7646C15.4107 17.7646 14.9336 18.0165 14.9336 18.3272C14.9336 18.6378 15.4107 18.8897 15.9992 18.8897Z" fill="#058888"/>
<path d="M17.0643 13.0615H14.9336V18.3263H17.0643V13.0615Z" fill="#058888"/>
<path d="M21.7513 16.8463H10.193C9.95014 16.8463 9.71721 16.754 9.54543 16.5898C9.37365 16.4255 9.2771 16.2026 9.277 15.9702L9.11133 8.4708C9.11133 8.35576 9.13502 8.24183 9.18104 8.13554C9.22705 8.02925 9.2945 7.93268 9.37952 7.85132C9.46455 7.76997 9.56552 7.70544 9.67661 7.66141C9.7877 7.61738 9.90672 7.59473 10.027 7.59473H21.9722C22.2151 7.59473 22.4479 7.68703 22.6197 7.85132C22.7914 8.01562 22.8879 8.23845 22.8879 8.4708L22.6669 15.9702C22.6668 16.2026 22.5703 16.4253 22.3986 16.5896C22.2269 16.7539 21.9941 16.8462 21.7513 16.8463Z" fill="#034444"/>
<path d="M21.7791 17.2437H10.1651C9.92965 17.2437 9.70379 17.1542 9.53724 16.9949C9.37069 16.8356 9.2771 16.6196 9.277 16.3943L9.11133 9.39727C9.11133 9.17199 9.20489 8.95594 9.37138 8.79665C9.53787 8.63735 9.76368 8.54785 9.99913 8.54785H22.0001C22.2355 8.54785 22.4614 8.63735 22.6278 8.79665C22.7943 8.95594 22.8879 9.17199 22.8879 9.39727L22.6669 16.3943C22.6669 16.6196 22.5734 16.8356 22.4069 16.9949C22.2404 17.1542 22.0146 17.2437 21.7791 17.2437Z" fill="#72CDCD"/>
<path d="M22.1521 17.2955H9.7893C9.65275 17.29 9.52391 17.2335 9.43032 17.1382C9.33673 17.0429 9.28582 16.9163 9.28851 16.7856L9.24223 14.8536C9.23789 14.787 9.24745 14.7202 9.27035 14.6572C9.29325 14.5942 9.32903 14.5362 9.37561 14.4866C9.42219 14.4369 9.4786 14.3967 9.54161 14.3681C9.60463 14.3396 9.67299 14.3233 9.74264 14.3203H22.213C22.2826 14.3234 22.3509 14.3397 22.414 14.3682C22.477 14.3968 22.5334 14.437 22.58 14.4867C22.6266 14.5363 22.6624 14.5943 22.6854 14.6572C22.7084 14.7202 22.718 14.787 22.7138 14.8536L22.6525 16.7856C22.6552 16.9163 22.6044 17.0428 22.5109 17.1381C22.4174 17.2334 22.2886 17.2899 22.1521 17.2955Z" fill="#034444"/>
<path d="M17.6012 16.3044H14.3555C14.3008 16.3044 14.2484 16.2837 14.2097 16.2467C14.1711 16.2097 14.1494 16.1596 14.1494 16.1073C14.1494 16.055 14.1711 16.0049 14.2097 15.9679C14.2484 15.9309 14.3008 15.9102 14.3555 15.9102H17.6012C17.6558 15.9102 17.7083 15.9309 17.7469 15.9679C17.7855 16.0049 17.8072 16.055 17.8072 16.1073C17.8072 16.1596 17.7855 16.2097 17.7469 16.2467C17.7083 16.2837 17.6558 16.3044 17.6012 16.3044Z" fill="#72CDCD"/>
<path d="M13.2246 19.4014H18.7757V19.5591C18.7757 19.5903 18.7628 19.6202 18.7397 19.6422C18.7167 19.6642 18.6855 19.6766 18.6529 19.6766H13.3475C13.3149 19.6766 13.2836 19.6642 13.2606 19.6422C13.2376 19.6202 13.2246 19.5903 13.2246 19.5591V19.4014Z" fill="#034444"/>
</svg>
