<svg width="32" height="32" viewBox="0 0 32 32" fill="none" xmlns="http://www.w3.org/2000/svg">
<path d="M19.0881 16.1084L19.0108 16.0634L19.0297 16.1499C19.0811 16.3787 19.052 16.6184 18.9475 16.8282C18.843 17.0379 18.6695 17.2049 18.4564 17.3008C18.2433 17.3968 18.0037 17.4157 17.7783 17.3544C17.5529 17.2931 17.3555 17.1554 17.2197 16.9646L17.1683 16.8924L17.151 16.9793C17.1047 17.209 16.9809 17.4156 16.8005 17.5642C16.6201 17.7127 16.3941 17.7941 16.1608 17.7946C15.9275 17.795 15.7013 17.7145 15.5203 17.5667C15.3393 17.4188 15.2147 17.2127 15.1676 16.9832L15.1498 16.8963L15.0988 16.9684C14.964 17.1604 14.7671 17.2995 14.5416 17.3622C14.3162 17.4248 14.0761 17.4071 13.8622 17.312C13.6483 17.2169 13.4738 17.0503 13.3684 16.8406C13.2629 16.6309 13.233 16.3909 13.2838 16.1615L13.3027 16.0754L13.2254 16.1204C13.0246 16.2396 12.7889 16.2854 12.5583 16.2501C12.3277 16.2148 12.1163 16.1006 11.9599 15.9267C11.8035 15.7529 11.7116 15.5301 11.6999 15.2961C11.6881 15.0621 11.7573 14.8311 11.8955 14.6424L11.948 14.571L11.8603 14.5811C11.6283 14.6087 11.394 14.5547 11.1971 14.4285C11.0001 14.3022 10.8528 14.1114 10.78 13.8884C10.7073 13.6654 10.7136 13.4239 10.7979 13.205C10.8822 12.9862 11.0392 12.8033 11.2424 12.6876L11.3196 12.6438L11.2354 12.6174C11.0128 12.5472 10.8213 12.4019 10.693 12.2061C10.5648 12.0104 10.5078 11.7761 10.5317 11.5429C10.5556 11.3098 10.659 11.0922 10.8244 10.9268C10.9897 10.7614 11.2068 10.6585 11.439 10.6354L11.5267 10.6269L11.4606 10.5683C11.2855 10.4134 11.1691 10.2024 11.1312 9.97107C11.0932 9.73977 11.1359 9.50238 11.2522 9.29914C11.3685 9.0959 11.5512 8.93929 11.7693 8.85584C11.9873 8.77239 12.2274 8.76723 12.4488 8.84125L12.5327 8.86918L12.496 8.78849C12.3987 8.57536 12.3778 8.335 12.4368 8.10815C12.4957 7.88129 12.6309 7.68189 12.8195 7.54373C13.008 7.40558 13.2384 7.33715 13.4714 7.35007C13.7045 7.36298 13.9259 7.45644 14.0982 7.6146L14.1631 7.67395V7.58551C14.1605 7.35107 14.2387 7.12295 14.3844 6.9398C14.5302 6.75666 14.7344 6.62975 14.9626 6.58058C15.1908 6.53141 15.4289 6.56299 15.6366 6.67C15.8443 6.777 16.0087 6.95284 16.1021 7.1677L16.1376 7.24878L16.1724 7.16731C16.2652 6.95222 16.429 6.77592 16.6363 6.66827C16.8436 6.56061 17.0815 6.52821 17.3098 6.57653C17.5382 6.62486 17.7429 6.75096 17.8893 6.93348C18.0357 7.116 18.1148 7.34374 18.1133 7.57814V7.66658L18.1782 7.60646C18.35 7.44789 18.5711 7.35381 18.804 7.34014C19.0369 7.32648 19.2673 7.39406 19.4564 7.53146C19.6454 7.66885 19.7814 7.86763 19.8413 8.09415C19.9012 8.32066 19.8813 8.56101 19.7851 8.77452L19.7488 8.85521L19.8323 8.82689C20.0535 8.75186 20.2937 8.75599 20.5122 8.83859C20.7307 8.92118 20.9141 9.07716 21.0312 9.28007C21.1483 9.48297 21.192 9.72032 21.1547 9.95187C21.1175 10.1834 21.0018 10.3949 20.827 10.5505L20.7614 10.6091L20.849 10.6176C21.0814 10.6395 21.2991 10.7414 21.4652 10.9061C21.6313 11.0708 21.7356 11.2881 21.7605 11.5213C21.7854 11.7544 21.7293 11.989 21.6016 12.1853C21.474 12.3816 21.2828 12.5275 21.0603 12.5984L20.9761 12.6251L21.0533 12.6686C21.2566 12.7837 21.414 12.9658 21.499 13.1842C21.5839 13.4025 21.5911 13.6436 21.5194 13.8667C21.4477 14.0898 21.3015 14.2811 21.1055 14.4083C20.9095 14.5355 20.6759 14.5908 20.444 14.5648L20.3563 14.5547L20.4092 14.6261C20.5463 14.8142 20.6149 15.0439 20.6036 15.2768C20.5922 15.5096 20.5016 15.7315 20.3468 15.9052C20.1919 16.0789 19.9824 16.1939 19.7532 16.2309C19.5241 16.2679 19.2893 16.2246 19.0881 16.1084Z" fill="#034444"/>
<path d="M15.8144 25.4447C18.8973 25.4447 21.3964 24.1922 21.3964 22.6471C21.3964 21.1021 18.8973 19.8496 15.8144 19.8496C12.7316 19.8496 10.2324 21.1021 10.2324 22.6471C10.2324 24.1922 12.7316 25.4447 15.8144 25.4447Z" fill="#72CDCD"/>
<path d="M15.8141 24.3889C18.5975 24.3889 20.8538 23.3367 20.8538 22.0387C20.8538 20.7407 18.5975 19.6885 15.8141 19.6885C13.0308 19.6885 10.7744 20.7407 10.7744 22.0387C10.7744 23.3367 13.0308 24.3889 15.8141 24.3889Z" fill="#034444"/>
<path d="M20.8542 20.5215H10.7744V22.0396H20.8542V20.5215Z" fill="#034444"/>
<path d="M15.8141 22.8723C18.5975 22.8723 20.8538 21.8201 20.8538 20.5221C20.8538 19.2241 18.5975 18.1719 15.8141 18.1719C13.0308 18.1719 10.7744 19.2241 10.7744 20.5221C10.7744 21.8201 13.0308 22.8723 15.8141 22.8723Z" fill="#058888"/>
<path d="M13.4467 14.29L12.3422 20.4445C12.3349 20.4844 12.3397 20.5257 12.3557 20.5625C12.3718 20.5993 12.3983 20.6297 12.4315 20.6493C12.4647 20.6689 12.5029 20.6767 12.5405 20.6716C12.578 20.6666 12.6131 20.6488 12.6407 20.621L13.9752 19.2794L14.7415 21.1127C14.757 21.1494 14.7829 21.1799 14.8154 21.2C14.848 21.22 14.8856 21.2286 14.923 21.2245C14.9603 21.2204 14.9955 21.2039 15.0236 21.1772C15.0517 21.1505 15.0712 21.115 15.0795 21.0757L16.3467 15.1928L13.4467 14.29Z" fill="#034444"/>
<path d="M18.4868 14.29L19.5914 20.4445C19.5986 20.4843 19.5938 20.5255 19.5777 20.5622C19.5617 20.5989 19.5351 20.6292 19.502 20.6488C19.4689 20.6684 19.4309 20.6762 19.3934 20.6713C19.3559 20.6663 19.3208 20.6487 19.2932 20.621L17.9586 19.2794L17.192 21.1127C17.1765 21.1494 17.1507 21.1799 17.1182 21.2C17.0856 21.22 17.048 21.2286 17.0106 21.2245C16.9733 21.2204 16.9381 21.2039 16.91 21.1772C16.8819 21.1505 16.8623 21.115 16.8541 21.0757L15.5869 15.1928L18.4868 14.29Z" fill="#034444"/>
<path d="M19.0828 16.2131L19.0068 16.1714L19.0259 16.2522C19.0769 16.4666 19.0476 16.691 18.943 16.8875C18.8384 17.0839 18.6649 17.2403 18.4519 17.33C18.2389 17.4198 17.9994 17.4375 17.7742 17.38C17.5489 17.3226 17.3517 17.1936 17.2159 17.0149L17.1646 16.9475L17.1471 17.0287C17.1012 17.2443 16.9777 17.4383 16.7973 17.5778C16.6168 17.7173 16.3907 17.7938 16.1572 17.7942C15.9237 17.7947 15.6973 17.7191 15.5162 17.5803C15.3352 17.4414 15.2107 17.2479 15.1639 17.0325L15.1464 16.951L15.0952 17.0188C14.9601 17.1981 14.7634 17.3279 14.5383 17.3862C14.3132 17.4445 14.0737 17.4277 13.8602 17.3386C13.6468 17.2496 13.4726 17.0938 13.3672 16.8977C13.2618 16.7016 13.2316 16.4772 13.2819 16.2625L13.301 16.1817L13.2249 16.2238C13.0241 16.3356 12.7884 16.3787 12.5577 16.3456C12.3271 16.3126 12.1157 16.2055 11.9593 16.0425C11.8029 15.8795 11.711 15.6706 11.6995 15.4511C11.6879 15.2317 11.7572 15.0153 11.8956 14.8384L11.9477 14.7718L11.8602 14.7814C11.6283 14.8068 11.3944 14.7559 11.1978 14.6375C11.0012 14.519 10.8542 14.3401 10.7816 14.1312C10.709 13.9223 10.7153 13.6962 10.7996 13.4913C10.8838 13.2863 11.0408 13.115 11.2438 13.0065L11.3202 12.9656L11.2364 12.9407C11.0136 12.8751 10.8217 12.7391 10.6932 12.5555C10.5648 12.372 10.5078 12.1523 10.5317 11.9337C10.5556 11.715 10.6591 11.5109 10.8246 11.3559C10.9901 11.2009 11.2074 11.1045 11.4397 11.0831L11.5276 11.0751L11.4613 11.0203C11.2861 10.8751 11.1696 10.6773 11.1316 10.4605C11.0935 10.2437 11.1364 10.0211 11.2527 9.83056C11.369 9.64001 11.5516 9.49319 11.7697 9.41497C11.9879 9.33676 12.228 9.33195 12.4494 9.40137L12.5332 9.42741L12.4966 9.35083C12.3994 9.1511 12.3786 8.92589 12.4375 8.71333C12.4965 8.50078 12.6317 8.31394 12.8201 8.18446C13.0086 8.05497 13.2388 7.9908 13.4717 8.0028C13.7047 8.0148 13.9261 8.10225 14.0985 8.25032L14.1635 8.30623V8.22352C14.1609 8.00376 14.2391 7.78993 14.3848 7.61825C14.5305 7.44657 14.7347 7.3276 14.9629 7.28149C15.1911 7.23539 15.4293 7.265 15.6369 7.36529C15.8446 7.46558 16.0091 7.63039 16.1025 7.83179L16.1378 7.90837L16.1728 7.83179C16.2653 7.63001 16.4291 7.46458 16.6364 7.36352C16.8437 7.26246 17.0817 7.23199 17.3101 7.27729C17.5385 7.32258 17.7433 7.44085 17.8896 7.61205C18.036 7.78324 18.1151 7.99684 18.1133 8.21663V8.29972L18.1785 8.24343C18.3503 8.09495 18.5712 8.00689 18.804 7.99415C19.0368 7.9814 19.2673 8.04475 19.4562 8.17349C19.6451 8.30222 19.7811 8.48845 19.841 8.70067C19.901 8.91289 19.8812 9.13809 19.7851 9.33819L19.7485 9.41478L19.8319 9.38835C20.053 9.31841 20.293 9.32254 20.5113 9.40003C20.7295 9.47753 20.9127 9.62364 21.0297 9.81365C21.1468 10.0037 21.1906 10.2259 21.1536 10.4428C21.1167 10.6597 21.0013 10.8579 20.827 11.0039L20.7611 11.0586L20.8489 11.0667C21.0813 11.0872 21.299 11.1828 21.4652 11.3372C21.6313 11.4915 21.7357 11.6953 21.7605 11.9138C21.7854 12.1324 21.7291 12.3523 21.6015 12.5363C21.4738 12.7203 21.2825 12.8571 21.06 12.9234L20.9758 12.9483L21.0526 12.9893C21.256 13.0972 21.4135 13.2679 21.4984 13.4726C21.5834 13.6773 21.5906 13.9033 21.5188 14.1124C21.447 14.3215 21.3007 14.5008 21.1046 14.6199C20.9085 14.739 20.6746 14.7907 20.4427 14.766L20.3549 14.7569L20.4077 14.8235C20.547 14.9999 20.6172 15.2162 20.6065 15.4358C20.5957 15.6554 20.5046 15.8648 20.3486 16.0284C20.1927 16.1919 19.9815 16.2997 19.7508 16.3334C19.5201 16.367 19.284 16.3245 19.0828 16.2131Z" fill="#72CDCD"/>
<path d="M17.867 14.8716L16.0085 13.9699L14.1286 14.8349L14.5084 12.9676L13.0137 11.6271L15.1069 11.3747L16.0624 9.68164L16.9761 11.3932L19.0623 11.687L17.5339 12.9972L17.867 14.8716Z" fill="white"/>
</svg>
