<svg width="32" height="32" viewBox="0 0 32 32" fill="none" xmlns="http://www.w3.org/2000/svg">
<g clip-path="url(#clip0_2127_8879)">
<path d="M16.204 24.4997C19.3946 24.4997 21.9812 23.2454 21.9812 21.6981C21.9812 20.1508 19.3946 18.8965 16.204 18.8965C13.0133 18.8965 10.4268 20.1508 10.4268 21.6981C10.4268 23.2454 13.0133 24.4997 16.204 24.4997Z" fill="#72CDCD"/>
<path d="M16.2043 23.4421C19.0851 23.4421 21.4204 22.3884 21.4204 21.0887C21.4204 19.789 19.0851 18.7354 16.2043 18.7354C13.3236 18.7354 10.9883 19.789 10.9883 21.0887C10.9883 22.3884 13.3236 23.4421 16.2043 23.4421Z" fill="#034444"/>
<path d="M21.4204 19.5693H10.9883V21.0896H21.4204V19.5693Z" fill="#034444"/>
<path d="M16.2043 21.9225C19.0851 21.9225 21.4204 20.8689 21.4204 19.5692C21.4204 18.2695 19.0851 17.2158 16.2043 17.2158C13.3236 17.2158 10.9883 18.2695 10.9883 19.5692C10.9883 20.8689 13.3236 21.9225 16.2043 21.9225Z" fill="#72CDCD"/>
<path d="M15.3848 20.3287C18.8004 20.3287 21.5694 17.4569 21.5694 13.9144C21.5694 10.3718 18.8004 7.5 15.3848 7.5C11.9691 7.5 9.2002 10.3718 9.2002 13.9144C9.2002 17.4569 11.9691 20.3287 15.3848 20.3287Z" fill="#72CDCD"/>
<path d="M15.8027 20.3288C18.988 20.3288 21.5702 17.6506 21.5702 14.347C21.5702 11.0434 18.988 8.36523 15.8027 8.36523C12.6174 8.36523 10.0352 11.0434 10.0352 14.347C10.0352 17.6506 12.6174 20.3288 15.8027 20.3288Z" fill="#034444"/>
<path d="M18.6681 17.4486C18.4456 17.8121 18.132 18.106 17.761 18.2989C17.321 18.5299 16.8361 18.6543 16.343 18.6626V19.5691H15.6522V18.6514C14.9807 18.62 14.3355 18.3716 13.807 17.9409C13.5742 17.7364 13.387 17.4819 13.2585 17.1949C13.13 16.908 13.0631 16.5955 13.0626 16.279H15.026C15.0292 16.4728 15.0915 16.6606 15.204 16.8154C15.3165 16.9702 15.4734 17.084 15.6522 17.1405V15.3725C15.1955 15.2578 14.7467 15.112 14.3085 14.9362C13.9653 14.788 13.6632 14.5534 13.4294 14.2536C13.1604 13.8846 13.0266 13.4285 13.0518 12.9666C13.0418 12.6542 13.1025 12.3437 13.2289 12.06C13.3554 11.7763 13.5441 11.5272 13.7801 11.3327C14.3179 10.9025 14.9732 10.6595 15.6522 10.6386V9.73242H16.343V10.6386C16.9956 10.6582 17.6242 10.898 18.1335 11.3216C18.3566 11.5302 18.5367 11.7835 18.6628 12.0662C18.789 12.3489 18.8586 12.6552 18.8675 12.9666H16.8916C16.8873 12.7938 16.8324 12.6264 16.7342 12.4866C16.6361 12.3469 16.4992 12.2414 16.3419 12.1841V13.9182C16.8093 14.0465 17.27 14.1997 17.7222 14.3773C18.0601 14.5222 18.3587 14.7508 18.5916 15.0431C18.8631 15.4045 18.9991 15.8556 18.9745 16.313C18.9771 16.7138 18.871 17.1074 18.6681 17.4486ZM15.1718 13.347C15.3081 13.4917 15.4716 13.6059 15.6522 13.6824V12.1268C15.4732 12.1526 15.3067 12.2367 15.1769 12.3671C15.1172 12.4361 15.0713 12.5167 15.0417 12.6041C15.0122 12.6916 14.9997 12.7843 15.0048 12.8768C14.9998 13.0501 15.0596 13.2186 15.1718 13.347ZM16.855 16.9058C16.9814 16.7625 17.0492 16.5738 17.0439 16.3797C17.047 16.2918 17.0326 16.2042 17.0017 16.1224C16.9708 16.0405 16.9241 15.9662 16.8643 15.9038C16.7137 15.7608 16.5356 15.6523 16.3419 15.5853V17.1744C16.5369 17.1478 16.7174 17.053 16.8535 16.9058H16.855Z" fill="white"/>
<path d="M13.9376 20.971L10.7021 19.1281L11.2206 18.1482L13.5198 19.4586L15.545 16.8184L18.9104 18.4977L21.1896 15.1953L22.0658 15.8459L19.1145 20.1219L15.8521 18.5309L13.9376 20.971Z" fill="#72CDCD"/>
<path d="M22.5272 16.7085L22.7995 13.8242L20.2549 15.0214L22.5272 16.7085Z" fill="#72CDCD"/>
<path d="M10.6417 19.6307L10.6299 19.2648L11.1777 18.2305L11.1914 18.6306L10.6417 19.6307Z" fill="#72CDCD"/>
<path d="M14.1275 21.5735L10.6621 19.5988L11.1805 18.6188L13.6953 20.0518L15.7384 17.2327L18.9548 18.8379L21.1822 15.5635L22.0627 16.2081L19.1567 20.4766L16.0542 18.9709L14.1275 21.5735Z" fill="#058888"/>
<path d="M22.5298 17.0708L22.7841 14.1846L20.2471 15.3989L22.5298 17.0708Z" fill="#058888"/>
<path d="M20.2555 15.0214L20.2314 15.4108L22.7854 14.1842L22.8001 13.8242L20.2555 15.0214Z" fill="#72CDCD"/>
</g>
<defs>
<clipPath id="clip0_2127_8879">
<rect width="13.6" height="17" fill="white" transform="translate(9.2002 7.5)"/>
</clipPath>
</defs>
</svg>
