<svg width="25" height="25" viewBox="0 0 25 25" fill="none" xmlns="http://www.w3.org/2000/svg">
<path d="M12.85 19.8657C16.4626 19.8657 19.3911 18.5556 19.3911 16.9394C19.3911 15.3233 16.4626 14.0131 12.85 14.0131C9.23743 14.0131 6.30887 15.3233 6.30887 16.9394C6.30887 18.5556 9.23743 19.8657 12.85 19.8657Z" fill="#72CDCD"/>
<path d="M12.8503 18.7648C16.112 18.7648 18.7561 17.6642 18.7561 16.3066C18.7561 14.9491 16.112 13.8485 12.8503 13.8485C9.58868 13.8485 6.94458 14.9491 6.94458 16.3066C6.94458 17.6642 9.58868 18.7648 12.8503 18.7648Z" fill="#034444"/>
<path d="M18.7561 14.7167H6.94458V16.3046H18.7561V14.7167Z" fill="#034444"/>
<path d="M12.8503 17.1765C16.112 17.1765 18.7561 16.076 18.7561 14.7184C18.7561 13.3608 16.112 12.2603 12.8503 12.2603C9.58868 12.2603 6.94458 13.3608 6.94458 14.7184C6.94458 16.076 9.58868 17.1765 12.8503 17.1765Z" fill="#058888"/>
<path d="M16.6685 4H9.33146C8.59611 4 8 4.38157 8 4.85227V12.1477C8 12.6184 8.59611 13 9.33146 13H16.6685C17.4039 13 18 12.6184 18 12.1477V4.85227C18 4.38157 17.4039 4 16.6685 4Z" fill="#72CDCD"/>
<path d="M16.6682 14H9.33182C8.97867 14 8.64 13.9102 8.39024 13.7504C8.14049 13.5906 8.00011 13.3738 8 13.1477V5.85253C8 5.62643 8.14032 5.40958 8.39009 5.2497C8.63985 5.08982 8.9786 5 9.33182 5H16.6682C17.0214 5 17.3601 5.08982 17.6099 5.2497C17.8597 5.40958 18 5.62643 18 5.85253V13.1477C17.9999 13.3738 17.8595 13.5906 17.6098 13.7504C17.36 13.9102 17.0213 14 16.6682 14Z" fill="#034444"/>
<path d="M15 10.6667L15 8M15 8H12.3333M15 8L11 12" stroke="white" stroke-width="0.75" stroke-linecap="round" stroke-linejoin="round"/>
</svg>
