<svg width="32" height="32" viewBox="0 0 32 32" fill="none" xmlns="http://www.w3.org/2000/svg">
<path d="M19.7425 13.9031L19.5859 13.2326C21.3494 12.8554 21.5319 10.7027 21.5364 9.88327H20.4393V9.19824H22.2179L22.2439 9.51421C22.2814 10.1598 22.2212 10.8071 22.065 11.4361C21.715 12.7993 20.9113 13.6526 19.7425 13.9031Z" fill="#058888"/>
<path d="M12.3216 13.9048C11.1524 13.6543 10.3492 12.8011 9.9984 11.4361C9.84207 10.8071 9.78183 10.1598 9.81946 9.51421L9.84578 9.19824H11.6245V9.88327H10.5268C10.5313 10.7023 10.7139 12.8554 12.4779 13.2326L12.3216 13.9048Z" fill="#058888"/>
<path d="M16.0005 26.1894C19.9746 26.1894 23.1963 24.7481 23.1963 22.9702C23.1963 21.1923 19.9746 19.751 16.0005 19.751C12.0264 19.751 8.80469 21.1923 8.80469 22.9702C8.80469 24.7481 12.0264 26.1894 16.0005 26.1894Z" fill="#72CDCD"/>
<path d="M16.0008 24.9737C19.5889 24.9737 22.4976 23.763 22.4976 22.2696C22.4976 20.7761 19.5889 19.5654 16.0008 19.5654C12.4126 19.5654 9.50391 20.7761 9.50391 22.2696C9.50391 23.763 12.4126 24.9737 16.0008 24.9737Z" fill="#034444"/>
<path d="M22.4976 20.5254H9.50391V22.2722H22.4976V20.5254Z" fill="#034444"/>
<path d="M16.0008 23.2267C19.5889 23.2267 22.4976 22.016 22.4976 20.5225C22.4976 19.029 19.5889 17.8184 16.0008 17.8184C12.4126 17.8184 9.50391 19.029 9.50391 20.5225C9.50391 22.016 12.4126 23.2267 16.0008 23.2267Z" fill="#058888"/>
<path d="M16.0009 22.0426C17.7785 22.0426 19.2196 21.4428 19.2196 20.7029C19.2196 19.9631 17.7785 19.3633 16.0009 19.3633C14.2233 19.3633 12.7822 19.9631 12.7822 20.7029C12.7822 21.4428 14.2233 22.0426 16.0009 22.0426Z" fill="#034444"/>
<path d="M19.2196 20.6989H12.7822L13.3917 17.1025H18.6096L19.2196 20.6989Z" fill="#034444"/>
<path d="M16.0018 18.1881C17.4428 18.1881 18.611 17.702 18.611 17.1024C18.611 16.5027 17.4428 16.0166 16.0018 16.0166C14.5608 16.0166 13.3926 16.5027 13.3926 17.1024C13.3926 17.702 14.5608 18.1881 16.0018 18.1881Z" fill="#058888"/>
<path d="M16.0008 17.4376C16.4661 17.4376 16.8434 17.2806 16.8434 17.087C16.8434 16.8933 16.4661 16.7363 16.0008 16.7363C15.5354 16.7363 15.1582 16.8933 15.1582 17.087C15.1582 17.2806 15.5354 17.4376 16.0008 17.4376Z" fill="#058888"/>
<path d="M16.0008 14.1574C16.4661 14.1574 16.8434 14.0004 16.8434 13.8067C16.8434 13.613 16.4661 13.4561 16.0008 13.4561C15.5354 13.4561 15.1582 13.613 15.1582 13.8067C15.1582 14.0004 15.5354 14.1574 16.0008 14.1574Z" fill="#72CDCD"/>
<path d="M16.8434 13.8047H15.1582V17.0877H16.8434V13.8047Z" fill="#034444"/>
<path d="M11.5186 7.67578H20.4823V11.7859C20.4823 12.2897 20.3786 12.7886 20.1771 13.254C19.9756 13.7194 19.6803 14.1423 19.308 14.4985C18.9357 14.8547 18.4937 15.1373 18.0073 15.3301C17.5208 15.5229 16.9995 15.6221 16.473 15.6221H15.5279C14.4646 15.6221 13.4448 15.2179 12.6929 14.4985C11.941 13.7791 11.5186 12.8034 11.5186 11.7859V7.67578Z" fill="#034444"/>
<path d="M16.0004 9.5404C18.4757 9.5404 20.4823 8.70523 20.4823 7.67499C20.4823 6.64475 18.4757 5.80957 16.0004 5.80957C13.5252 5.80957 11.5186 6.64475 11.5186 7.67499C11.5186 8.70523 13.5252 9.5404 16.0004 9.5404Z" fill="#72CDCD"/>
<path d="M17.3271 13.8311L15.9802 13.2476L14.6177 13.8071L14.8929 12.5989L13.8086 11.7319L15.3256 11.5688L16.0178 10.4736L16.68 11.5808L18.1921 11.7709L17.0841 12.6186L17.3271 13.8311Z" fill="white"/>
<path d="M15.9891 17.4152C16.4544 17.4152 16.8317 17.2582 16.8317 17.0645C16.8317 16.8709 16.4544 16.7139 15.9891 16.7139C15.5237 16.7139 15.1465 16.8709 15.1465 17.0645C15.1465 17.2582 15.5237 17.4152 15.9891 17.4152Z" fill="#034444"/>
</svg>
